<?xml version="1.0" encoding="UTF-8" standalone="no"?>
<!-- Created with Inkscape (http://www.inkscape.org/) -->
<svg
   xmlns:dc="http://purl.org/dc/elements/1.1/"
   xmlns:cc="http://web.resource.org/cc/"
   xmlns:rdf="http://www.w3.org/1999/02/22-rdf-syntax-ns#"
   xmlns:svg="http://www.w3.org/2000/svg"
   xmlns="http://www.w3.org/2000/svg"
   xmlns:sodipodi="http://sodipodi.sourceforge.net/DTD/sodipodi-0.dtd"
   xmlns:inkscape="http://www.inkscape.org/namespaces/inkscape"
   width="600"
   height="600"
   id="svg7230"
   sodipodi:version="0.32"
   inkscape:version="0.45"
   sodipodi:modified="true"
   version="1.0">
  <defs
     id="defs7232" />
  <sodipodi:namedview
     id="base"
     pagecolor="#ffffff"
     bordercolor="#666666"
     borderopacity="1.0"
     inkscape:pageopacity="0.0"
     inkscape:pageshadow="2"
     inkscape:zoom="0.49497475"
     inkscape:cx="1171.5971"
     inkscape:cy="126.78551"
     inkscape:document-units="px"
     inkscape:current-layer="layer1"
     height="600px"
     width="600px"
     inkscape:window-width="1278"
     inkscape:window-height="988"
     inkscape:window-x="0"
     inkscape:window-y="0" />
  <metadata
     id="metadata7235">
    <rdf:RDF>
      <cc:Work
         rdf:about="">
        <dc:format>image/svg+xml</dc:format>
        <dc:type
           rdf:resource="http://purl.org/dc/dcmitype/StillImage" />
      </cc:Work>
    </rdf:RDF>
  </metadata>
  <g
     inkscape:label="Calque 1"
     inkscape:groupmode="layer"
     id="layer1">
    <path
       style="fill:#d70752;fill-opacity:1;fill-rule:evenodd;stroke:none;stroke-width:1px;stroke-linecap:butt;stroke-linejoin:miter;stroke-opacity:1"
       d="M 155.31715,99.37729 C 151.67619,100.16919 147.21419,99.13985 144.53418,98.65672 C 142.55304,93.698504 134.94047,96.9964 131.87449,92.202074 C 129.02192,90.518524 125.64564,90.960964 123.5532,92.899434 C 121.52253,87.903499 116.69404,85.39759 111.89792,83.672492 C 108.27019,79.682741 101.55431,79.443204 97.986172,78.648277 C 96.746012,76.591025 95.590372,69.021731 93.190722,70.739104 C 93.533822,72.414648 91.338052,75.099393 91.338052,75.099393 C 91.338052,75.099393 90.114732,73.927256 89.652482,72.105864 C 89.500372,65.571909 81.275962,71.932697 82.104942,61.500984 C 76.807292,57.4288 71.322242,53.448228 67.460292,47.888384 C 63.144432,42.824988 57.061332,39.012146 54.690772,32.5491 C 52.302072,29.736081 50.493692,25.232943 47.391572,23.700467 C 48.639312,29.416345 50.455632,34.770318 52.648792,40.216669 C 54.321532,43.052742 55.894342,50.043473 58.085812,50.184276 C 59.434322,48.128523 60.578152,49.329337 60.578152,49.329337 C 60.578152,49.329337 60.401342,52.628115 58.912952,53.485297 C 59.543752,60.18916 61.444912,67.30437 66.888892,71.730842 C 72.157092,74.652037 73.879002,80.013287 74.569802,85.621207 C 76.397392,90.853324 82.925282,87.121166 81.125462,93.377064 C 82.005772,96.82654 87.151402,97.36268 86.983012,101.71487 C 89.460702,106.48179 91.176062,97.51342 95.038332,102.14876 C 95.387292,106.54985 93.939292,111.57773 98.480152,115.70607 C 100.83496,114.41035 104.51092,103.74136 105.67181,110.15562 C 104.28202,113.30801 103.11808,120.3602 103.11808,120.3602 C 103.11808,120.3602 106.51494,124.01926 108.66459,125.24407 C 112.98665,126.78079 114.10825,131.66543 119.76191,132.05316 C 119.78143,131.14558 120.71265,128.48547 123.03102,127.9495 C 122.81739,124.24552 124.24005,120.7086 126.04017,123.11076 C 127.86908,127.26407 129.79206,134.4818 135.49939,129.7444 C 146.8883,125.65949 153.43117,114.84376 160.15425,105.51428 C 163.00316,101.98405 158.96291,97.99959 155.31715,99.37729 z "
       id="path5254"
       sodipodi:nodetypes="ccccccccccccccccccccccccsccccccc" />
    <path
       style="fill:#d70752;fill-opacity:1;fill-rule:evenodd;stroke:none;stroke-width:1px;stroke-linecap:butt;stroke-linejoin:miter;stroke-opacity:1"
       d="M 428.99675,102.14874 C 434.50904,99.20162 441.30631,98.95277 446.38764,102.89441 C 453.65896,107.17607 450.40902,94.675934 457.19165,95.910884 C 460.46826,97.08121 460.14384,93.217574 462.14983,95.418214 C 466.07112,97.94695 470.46759,94.869794 473.33978,92.910624 C 478.518,92.069254 482.59211,89.213748 486.48745,85.67518 C 486.61659,84.341638 486.84881,82.313938 486.84881,82.313938 C 486.84881,82.313938 494.43001,76.9985 499.61425,75.229276 C 503.44034,70.773908 510.86498,72.859772 513.52565,66.81291 C 516.20169,62.409655 521.92918,61.083608 526.12359,58.623323 C 527.7665,59.108481 528.5977,58.065757 528.5977,58.065757 C 529.3167,55.79108 528.44954,53.046214 531.77097,51.339027 C 535.72817,47.19787 541.26404,44.668678 544.3159,39.694027 C 547.9981,34.151885 542.42213,45.89388 541.93291,48.336636 C 539.76111,52.884327 536.71154,57.371687 534.35455,61.400729 C 536.56637,67.723814 529.76297,69.859865 527.26144,74.615242 C 526.67468,79.058914 523.26357,80.997825 520.05692,82.425627 C 519.90789,84.938341 517.89755,88.927688 517.89755,88.927688 C 517.89755,88.927688 513.36259,91.174444 511.99629,92.850564 C 512.18453,95.092244 511.18208,98.38726 511.18208,98.38726 C 511.18208,98.38726 506.20514,101.26716 503.59466,101.9178 C 499.32569,105.31871 495.58526,112.4016 490.18295,114.4453 C 487.89891,114.15476 486.2424,113.0818 484.0588,113.23721 C 480.25923,115.20548 484.22305,115.82365 484.6565,117.62261 C 485.26488,123.72228 476.92802,123.77655 473.80169,127.32267 C 471.03019,131.92607 465.58751,131.91063 461.15623,132.38203 C 458.04262,136.28919 450.58292,135.42283 447.43418,131.27505 C 442.16517,126.63814 435.59891,122.79742 433.17869,115.78191 C 432.13804,111.52756 426.5392,106.07554 428.25296,102.50098 L 428.99675,102.14876 L 428.99675,102.14874 z "
       id="path5259"
       sodipodi:nodetypes="ccccccccccccccccccccccccccccccc" />
    <g
       id="g7204"
       transform="matrix(3273.495,0,0,3273.495,-1382.8435,-1219.6217)"
       style="fill:#d70752;fill-opacity:1">
      <path
         d="M 0.51985894,0.4675745 L 0.51973741,0.46759186 L 0.51963325,0.46759186 L 0.51952908,0.46759186 L 0.51944227,0.46760922 L 0.51935547,0.46760922 L 0.51926866,0.46762658 L 0.51919922,0.46764395 L 0.51914714,0.46764395 L 0.51909505,0.46766131 L 0.51904297,0.46767867 L 0.51899089,0.46769603 L 0.51897353,0.46773075 L 0.51893881,0.46774811 L 0.51892144,0.46776547 L 0.51890408,0.46778283 L 0.51890408,0.46781756 L 0.51888672,0.46783492 L 0.51890408,0.46786964 L 0.51890408,0.46790436 L 0.51892144,0.46792172 L 0.51895617,0.46795644 L 0.51897353,0.46799117 L 0.51900825,0.46802589 L 0.51906033,0.46804325 L 0.51909505,0.46807797 L 0.51914714,0.46811269 L 0.51919922,0.46814741 L 0.51926866,0.46818214 L 0.51933811,0.46821686 L 0.51940755,0.46825158 L 0.519477,0.4682863 L 0.5195638,0.46833839 L 0.51963325,0.46837311 L 0.51972005,0.46840783 L 0.51982422,0.46844255 L 0.51991102,0.46847727 L 0.52001519,0.468512 L 0.52011935,0.46856408 L 0.52022352,0.4685988 L 0.52034505,0.46863352 L 0.52044921,0.46866824 L 0.52057074,0.46870297 L 0.52081379,0.46878977 L 0.52107421,0.46885922 L 0.52133462,0.46892866 L 0.5216124,0.46901546 L 0.52189018,0.46908491 L 0.52218531,0.46915435 L 0.52249781,0.46920644 L 0.52279295,0.46927588 L 0.52310545,0.46932796 L 0.52341794,0.46938005 L 0.52373044,0.46943213 C 0.5246853,0.46870297 0.52551862,0.4679738 0.52628251,0.467262 C 0.52416447,0.46776547 0.52202906,0.46778283 0.51985894,0.4675745 z "
         style="font-style:normal;font-variant:normal;font-weight:normal;font-stretch:normal;letter-spacing:normal;word-spacing:normal;text-anchor:start;fill:#d70752;fill-opacity:1;fill-rule:nonzero;stroke:#d72766;stroke-width:0;stroke-linecap:butt;stroke-linejoin:miter;stroke-miterlimit:10.43299961;stroke-dasharray:none;stroke-dashoffset:0;stroke-opacity:1"
         id="path7206" />
      <path
         d="M 0.53378246,0.46411966 L 0.5340776,0.46372036 L 0.53433801,0.4633037 L 0.53461579,0.46288703 L 0.53485884,0.46248773 L 0.5351019,0.4620537 L 0.53532759,0.46163704 L 0.53555328,0.46120301 L 0.53574425,0.46078635 L 0.53593522,0.46035233 L 0.53610883,0.45990094 L 0.53628244,0.45946691 L 0.53642133,0.45903289 L 0.53656022,0.4585815 L 0.53666439,0.45813012 L 0.53676855,0.45767873 L 0.53685536,0.45722735 C 0.53650814,0.45896345 0.53557064,0.46043913 0.53470259,0.46200162 C 0.52984151,0.46505716 0.53423385,0.46019608 0.53468523,0.45833845 C 0.52947693,0.46491827 0.53397343,0.4622794 0.53378246,0.46411966 z "
         style="font-style:normal;font-variant:normal;font-weight:normal;font-stretch:normal;letter-spacing:normal;word-spacing:normal;text-anchor:start;fill:#d70752;fill-opacity:1;fill-rule:nonzero;stroke:#d72766;stroke-width:0;stroke-linecap:butt;stroke-linejoin:miter;stroke-miterlimit:10.43299961;stroke-dasharray:none;stroke-dashoffset:0;stroke-opacity:1"
         id="path7208" />
      <path
         d="M 0.53892132,0.45073433 L 0.53893868,0.45063016 L 0.53893868,0.450526 L 0.53893868,0.45042183 L 0.53895604,0.45031767 L 0.53895604,0.45023086 L 0.53895604,0.4501267 L 0.53895604,0.45002253 L 0.5389734,0.44993573 L 0.5389734,0.44984892 L 0.5389734,0.44976211 L 0.5389734,0.44967531 L 0.5389734,0.44958851 L 0.5389734,0.4495017 L 0.5389734,0.44941489 L 0.5389734,0.44934545 L 0.5389734,0.44927601 L 0.5389734,0.4491892 L 0.5389734,0.44911976 L 0.5389734,0.44905031 L 0.5389734,0.44898087 L 0.53895604,0.44891143 L 0.53895604,0.44884198 L 0.53895604,0.4487899 L 0.53895604,0.44872046 L 0.53895604,0.44866837 L 0.53893868,0.44859893 L 0.53893868,0.44854685 L 0.53893868,0.44849476 L 0.53892132,0.44844268 L 0.53892132,0.4483906 L 0.53892132,0.44833851 L 0.53890396,0.44830379 L 0.53890396,0.44825171 L 0.53888659,0.44821699 L 0.53888659,0.4481649 L 0.53886923,0.44813018 L 0.53886923,0.44809546 L 0.53885187,0.44806074 L 0.53885187,0.44802602 L 0.53883451,0.44799129 L 0.53883451,0.44795657 L 0.53881715,0.44792185 L 0.53879979,0.44788713 L 0.53879979,0.44786977 L 0.53878243,0.44783504 L 0.53876507,0.44781768 L 0.53876507,0.44780032 L 0.53874771,0.4477656 L 0.53873035,0.44774824 L 0.53873035,0.44773088 L 0.53869562,0.44769616 L 0.53867826,0.4476788 L 0.53864354,0.44764407 L 0.53860882,0.44762671 L 0.53859146,0.44762671 L 0.53855674,0.44760935 L 0.53852201,0.44760935 L 0.53850465,0.44762671 L 0.53846993,0.44762671 L 0.53843521,0.44764407 L 0.53840049,0.44766143 L 0.53836576,0.4476788 L 0.5383484,0.44769616 L 0.53831368,0.44773088 L 0.53827896,0.4477656 L 0.53824424,0.44780032 L 0.53820952,0.44783504 L 0.53817479,0.44788713 L 0.53814007,0.44792185 L 0.53810535,0.44797393 L 0.53808799,0.44802602 L 0.53805327,0.4480781 L 0.53801854,0.44814754 L 0.53798382,0.44819963 L 0.5379491,0.44826907 L 0.53793174,0.44832115 L 0.53789702,0.4483906 L 0.5378623,0.44846004 L 0.53782757,0.44852948 L 0.53781021,0.44861629 L 0.53777549,0.44868573 L 0.53775813,0.44875518 L 0.53772341,0.44884198 L 0.53770605,0.44891143 L 0.53767132,0.44899823 L 0.5376366,0.44915448 L 0.53758452,0.44932809 C 0.53807063,0.44958851 0.53845257,0.45262668 0.53892132,0.45073433 z "
         style="font-style:normal;font-variant:normal;font-weight:normal;font-stretch:normal;letter-spacing:normal;word-spacing:normal;text-anchor:start;fill:#d70752;fill-opacity:1;fill-rule:nonzero;stroke:#d72766;stroke-width:0;stroke-linecap:butt;stroke-linejoin:miter;stroke-miterlimit:10.43299961;stroke-dasharray:none;stroke-dashoffset:0;stroke-opacity:1"
         id="path7210" />
      <path
         d="M 0.51001525,0.38688057 L 0.51027567,0.38693266 L 0.51055344,0.38698474 L 0.51081386,0.38701946 L 0.51107427,0.38707154 L 0.5111958,0.38708891 L 0.51131733,0.38710627 L 0.51143885,0.38712363 L 0.51156038,0.38715835 L 0.51168191,0.38717571 L 0.51180343,0.38719307 L 0.5119076,0.38721043 L 0.51201177,0.38724515 L 0.51211593,0.38726251 L 0.51220274,0.38727988 L 0.51228954,0.3873146 L 0.51237635,0.38733196 L 0.51246315,0.38734932 L 0.5125326,0.38738404 L 0.51258468,0.3874014 L 0.51265412,0.38743613 L 0.51270621,0.38745349 L 0.51274093,0.38748821 L 0.51275829,0.38748821 L 0.51277565,0.38750557 L 0.51277565,0.38752293 L 0.51279301,0.38754029 L 0.51281037,0.38755765 L 0.51281037,0.38755765 L 0.51281037,0.38757501 L 0.51281037,0.38759237 L 0.51281037,0.38760973 L 0.51281037,0.3876271 L 0.51279301,0.38764446 L 0.51279301,0.38766182 C 0.51430342,0.3873146 0.51465064,0.38701946 0.51001525,0.38688057 z "
         style="font-style:normal;font-variant:normal;font-weight:normal;font-stretch:normal;letter-spacing:normal;word-spacing:normal;text-anchor:start;fill:#d70752;fill-opacity:1;fill-rule:nonzero;stroke:#d72766;stroke-width:0;stroke-linecap:butt;stroke-linejoin:miter;stroke-miterlimit:10.43299961;stroke-dasharray:none;stroke-dashoffset:0;stroke-opacity:1"
         id="path7212" />
      <polygon
         transform="matrix(1.7361e-3,0,0,-1.7361e-3,-4.1474274e-2,1.183872)"
         points="319.26,458.62 318.7,458.51 319.22,458.55 319.26,458.62 "
         style="font-style:normal;font-variant:normal;font-weight:normal;font-stretch:normal;letter-spacing:normal;word-spacing:normal;text-anchor:start;fill:#d70752;fill-opacity:1;fill-rule:nonzero;stroke:#d72766;stroke-width:0;stroke-linecap:butt;stroke-linejoin:miter;stroke-miterlimit:10.43299961;stroke-dasharray:none;stroke-dashoffset:0;stroke-opacity:1"
         id="polygon7214" />
      <path
         d="M 0.55595246,0.45250515 L 0.55596982,0.45290446 L 0.55596982,0.45326904 L 0.55596982,0.45363362 L 0.55595246,0.4539982 L 0.5559351,0.45432806 L 0.55590037,0.45467528 L 0.55586565,0.45498778 L 0.55581357,0.45531763 L 0.55576149,0.45561277 L 0.5557094,0.45592527 L 0.55563996,0.45622041 L 0.55557052,0.45651554 L 0.55541427,0.45708846 L 0.55525802,0.45764401 L 0.55506705,0.45819956 L 0.55485871,0.45875511 L 0.55465038,0.45931067 L 0.55442469,0.45988358 L 0.554199,0.46045649 L 0.55395594,0.46106413 L 0.55383442,0.46137662 L 0.55371289,0.46168912 L 0.55360872,0.46201898 L 0.5534872,0.46234884 L 0.55124763,0.46345994 C 0.54940736,0.46703631 0.55142124,0.46573423 0.5501018,0.46856408 C 0.54723724,0.47111614 0.5414213,0.47653278 0.53956367,0.47703625 C 0.53819215,0.47700152 0.54048381,0.47542167 0.54077894,0.47479668 C 0.53694216,0.47743555 0.53770605,0.47875499 0.53183803,0.4803522 L 0.53166442,0.47997026 C 0.51720271,0.48677577 0.49711603,0.47328627 0.49737644,0.45490097 C 0.49722019,0.45606416 0.49692506,0.45576902 0.49661256,0.45623777 C 0.49586604,0.44677602 0.50098753,0.43727956 0.50961595,0.43339069 C 0.51805339,0.42920669 0.52796653,0.43092543 0.53400815,0.43656776 C 0.53067484,0.43221014 0.52407766,0.42759212 0.51623049,0.42802614 C 0.50855693,0.42814767 0.50138683,0.43302611 0.49897366,0.43832122 C 0.49505007,0.44078648 0.49459868,0.44786977 0.49287994,0.44915448 C 0.49057093,0.46609882 0.49722019,0.47342516 0.50845276,0.48203621 C 0.51022358,0.48323412 0.50895623,0.48340773 0.50918192,0.48431051 C 0.50544931,0.48257441 0.50204655,0.47993553 0.49923407,0.47668903 C 0.50070976,0.47887651 0.50232433,0.48099455 0.50440765,0.48267857 C 0.50088337,0.48148066 0.49617854,0.47413696 0.49480702,0.47384182 C 0.50088337,0.48470981 0.51942491,0.49288684 0.52914707,0.48882437 C 0.52465057,0.48899798 0.51893881,0.48892853 0.51388675,0.48705354 C 0.51176871,0.4859598 0.50888679,0.48370287 0.50939026,0.48328621 C 0.52265406,0.48823409 0.53635189,0.48703618 0.54781015,0.47783485 C 0.5507268,0.47556056 0.55392122,0.47170642 0.55484135,0.47163698 C 0.55345247,0.47373766 0.55508441,0.47264391 0.55400803,0.47448418 C 0.55692467,0.46979671 0.55275803,0.47257447 0.55701148,0.46639395 L 0.55859133,0.46856408 C 0.55800106,0.46465785 0.56343505,0.45993566 0.5628795,0.45378987 C 0.56412949,0.45189752 0.56426838,0.4558211 0.56294894,0.46014399 C 0.56477185,0.455335 0.56343505,0.45457111 0.5639038,0.45059544 C 0.56440726,0.45193224 0.56508434,0.45333848 0.5654142,0.45476208 C 0.56423365,0.45010933 0.56664683,0.44693227 0.56723711,0.44424132 C 0.56664683,0.4439809 0.56539684,0.44628992 0.5651017,0.44080384 C 0.56515379,0.43842538 0.56577878,0.43955385 0.56600448,0.43898093 C 0.56555309,0.43870316 0.56432046,0.43688025 0.56357394,0.43337333 C 0.56411213,0.43255736 0.5650149,0.43550873 0.56576142,0.43563026 C 0.56527531,0.4328525 0.56445935,0.4307171 0.56442463,0.42858169 C 0.56228922,0.4240852 0.5636781,0.42918933 0.56192464,0.42665462 C 0.55963299,0.41951925 0.56383435,0.42500533 0.56411213,0.42175882 C 0.56758433,0.42677615 0.56956348,0.43457124 0.57046625,0.43780039 C 0.56977181,0.4338768 0.56866071,0.43005738 0.56728919,0.42635949 C 0.56834821,0.42681087 0.56558781,0.41826926 0.56866071,0.42392895 C 0.56537948,0.41186305 0.55463302,0.40059576 0.54473725,0.39531802 C 0.54595252,0.39642912 0.54748029,0.397818 0.5469421,0.39802633 C 0.54201157,0.39510969 0.54287962,0.39488399 0.54216782,0.393634 C 0.53817479,0.39200207 0.53791438,0.39377289 0.53525815,0.393634 C 0.52770611,0.38964097 0.52624779,0.39005764 0.51930339,0.38755765 L 0.51961588,0.38903334 C 0.51461592,0.38736668 0.51378259,0.38965833 0.50838332,0.38903334 C 0.50805346,0.38877292 0.51011942,0.3881132 0.5118208,0.38785279 C 0.50697708,0.38849515 0.50720277,0.38691529 0.50246322,0.3880264 C 0.5036264,0.38721043 0.5048764,0.38667224 0.50610903,0.3859778 C 0.50216808,0.38622086 0.49669936,0.38826945 0.49838338,0.38641183 C 0.49195981,0.38927639 0.48053627,0.39330414 0.4741127,0.39931105 L 0.47392173,0.39797425 C 0.47098772,0.40149853 0.46110931,0.40849502 0.46032807,0.41307832 L 0.45952946,0.41325193 C 0.4580017,0.41583872 0.45701212,0.41877273 0.45579685,0.42142896 C 0.45380033,0.42484908 0.4528802,0.4227484 0.45315798,0.42328659 C 0.44921703,0.43125529 0.4472726,0.43795664 0.44558858,0.44346007 C 0.44678649,0.44524826 0.44560594,0.45427598 0.44605733,0.46149815 C 0.44409553,0.49715765 0.47109189,0.53177548 0.50060559,0.5397789 C 0.50492848,0.54132403 0.51136941,0.54127195 0.51683812,0.5414282 C 0.51039719,0.53957057 0.5095465,0.54045598 0.50326182,0.53825113 C 0.4987306,0.53611573 0.49774103,0.53366783 0.49451188,0.53089007 L 0.49579659,0.53312964 C 0.48949455,0.53090743 0.49213342,0.53036924 0.48699457,0.52875467 L 0.48834872,0.52696648 C 0.48631749,0.52682759 0.48294945,0.523529 0.48202932,0.5217061 L 0.47978975,0.5217929 C 0.4770988,0.51847695 0.47567519,0.5160985 0.47577936,0.51424087 L 0.4750502,0.51554294 C 0.47423423,0.5141367 0.46517179,0.50311247 0.46987662,0.5056819 C 0.46900857,0.50488329 0.46784538,0.50437982 0.46657803,0.50208817 L 0.46755025,0.50099443 C 0.46527596,0.49807778 0.46338361,0.49434516 0.46352249,0.49311253 C 0.4647204,0.49472711 0.46557109,0.4950396 0.46640442,0.49531738 C 0.46069265,0.4811508 0.46036279,0.4945535 0.4560399,0.48089039 L 0.45694267,0.48082094 C 0.45624824,0.47976192 0.45583157,0.4786161 0.45525866,0.47748763 L 0.45565796,0.47352932 C 0.4515434,0.46877241 0.45451213,0.45330376 0.45510241,0.44483159 C 0.45551907,0.44137675 0.45853989,0.43771358 0.46083154,0.43194973 L 0.45944266,0.43170668 C 0.46211625,0.42703657 0.47472034,0.4129568 0.48055363,0.41368596 C 0.48338348,0.41012695 0.47999808,0.4136686 0.47944253,0.41278318 C 0.48565777,0.40634225 0.4876022,0.4082346 0.49180356,0.40707142 C 0.49631742,0.40439782 0.4879147,0.40813044 0.49006746,0.40604712 C 0.49787991,0.4040506 0.49560562,0.4015159 0.50579653,0.40050896 C 0.50687291,0.40111659 0.50329654,0.40144645 0.50241113,0.40224506 C 0.50892151,0.39905063 0.52300128,0.3997798 0.53216789,0.40401588 C 0.54279282,0.40898113 0.55471983,0.42365117 0.55520593,0.43745317 L 0.55574413,0.43759205 C 0.55546635,0.44309549 0.55657745,0.44943226 0.55465038,0.45526555 L 0.55595246,0.45250515 z "
         style="font-style:normal;font-variant:normal;font-weight:normal;font-stretch:normal;letter-spacing:normal;word-spacing:normal;text-anchor:start;fill:#d70752;fill-opacity:1;fill-rule:nonzero;stroke:#d72766;stroke-width:0;stroke-linecap:butt;stroke-linejoin:miter;stroke-miterlimit:10.43299961;stroke-dasharray:none;stroke-dashoffset:0;stroke-opacity:1"
         id="path7216" />
      <path
         d="M 0.49154315,0.47113351 L 0.49117857,0.47295641 C 0.49287994,0.47528278 0.4942341,0.47778277 0.49640423,0.47958831 C 0.4948591,0.47653278 0.49367855,0.47528278 0.49154315,0.47113351 z "
         style="font-style:normal;font-variant:normal;font-weight:normal;font-stretch:normal;letter-spacing:normal;word-spacing:normal;text-anchor:start;fill:#d70752;fill-opacity:1;fill-rule:nonzero;stroke:#d72766;stroke-width:0;stroke-linecap:butt;stroke-linejoin:miter;stroke-miterlimit:10.43299961;stroke-dasharray:none;stroke-dashoffset:0;stroke-opacity:1"
         id="path7218" />
      <path
         d="M 0.4955709,0.47099462 L 0.49541465,0.47080365 L 0.4952584,0.47059531 L 0.49510215,0.47040434 L 0.49496326,0.47019601 L 0.49482438,0.47000504 L 0.49468549,0.46979671 L 0.49456396,0.46957102 L 0.49444244,0.46936268 L 0.49432091,0.46915435 L 0.49421674,0.46892866 L 0.49399105,0.46849463 L 0.49376536,0.46804325 L 0.49353966,0.46759186 C 0.49411258,0.46969254 0.49529312,0.47149809 0.49636951,0.47333835 L 0.4955709,0.47099462 z "
         style="font-style:normal;font-variant:normal;font-weight:normal;font-stretch:normal;letter-spacing:normal;word-spacing:normal;text-anchor:start;fill:#d70752;fill-opacity:1;fill-rule:nonzero;stroke:#d72766;stroke-width:0;stroke-linecap:butt;stroke-linejoin:miter;stroke-miterlimit:10.43299961;stroke-dasharray:none;stroke-dashoffset:0;stroke-opacity:1"
         id="path7220" />
      <path
         d="M 0.56690725,0.45549125 L 0.56652531,0.4564461 C 0.56581351,0.46141135 0.5643031,0.46630715 0.56199409,0.47087309 C 0.56454615,0.46606409 0.56619545,0.46080371 0.56690725,0.45549125 z "
         style="font-style:normal;font-variant:normal;font-weight:normal;font-stretch:normal;letter-spacing:normal;word-spacing:normal;text-anchor:start;fill:#d70752;fill-opacity:1;fill-rule:nonzero;stroke:#d72766;stroke-width:0;stroke-linecap:butt;stroke-linejoin:miter;stroke-miterlimit:10.43299961;stroke-dasharray:none;stroke-dashoffset:0;stroke-opacity:1"
         id="path7222" />
      <path
         d="M 0.51053608,0.38564794 L 0.51070969,0.38559586 L 0.5108833,0.38554378 L 0.51105691,0.38549169 L 0.51123052,0.38543961 L 0.51142149,0.38540489 L 0.5115951,0.38537017 L 0.51178607,0.38533544 L 0.51197704,0.38531808 L 0.51237635,0.385266 L 0.51277565,0.38523128 L 0.51317495,0.38519656 L 0.51357426,0.38517919 L 0.51440758,0.38512711 L 0.51480689,0.38510975 L 0.51520619,0.38507503 L 0.51560549,0.38504031 L 0.51598744,0.38498822 L 0.51616105,0.38497086 L 0.51635202,0.38493614 L 0.51652563,0.38490142 L 0.5167166,0.3848667 C 0.51428606,0.38507503 0.51187288,0.38519656 0.50949442,0.38549169 L 0.51053608,0.38564794 z "
         style="font-style:normal;font-variant:normal;font-weight:normal;font-stretch:normal;letter-spacing:normal;word-spacing:normal;text-anchor:start;fill:#d70752;fill-opacity:1;fill-rule:nonzero;stroke:#d72766;stroke-width:0;stroke-linecap:butt;stroke-linejoin:miter;stroke-miterlimit:10.43299961;stroke-dasharray:none;stroke-dashoffset:0;stroke-opacity:1"
         id="path7224" />
      <path
         d="M 0.44895661,0.41839079 L 0.44897398,0.4185644 L 0.44897398,0.41873801 L 0.44899134,0.41889426 L 0.44899134,0.41906787 L 0.44899134,0.41922412 L 0.44897398,0.41938036 L 0.44897398,0.41953661 L 0.44895661,0.4196755 L 0.44893925,0.41983175 L 0.44892189,0.41997064 L 0.44888717,0.42010953 L 0.44886981,0.42024841 L 0.44883509,0.42036994 L 0.44881773,0.42049147 L 0.44878301,0.420613 L 0.44874828,0.42073452 L 0.44871356,0.42085605 L 0.44866148,0.42096022 L 0.44862676,0.42106438 L 0.44859203,0.42116855 L 0.44855731,0.42127271 L 0.44850523,0.42137688 L 0.44847051,0.42146368 L 0.44843579,0.42155049 L 0.4483837,0.42161993 L 0.44834898,0.42170674 L 0.44831426,0.42177618 L 0.44827954,0.42184563 L 0.44824481,0.42191507 L 0.44821009,0.42196715 L 0.44817537,0.4220366 L 0.44814065,0.42207132 L 0.44810593,0.4221234 L 0.44808856,0.42217549 L 0.4480712,0.42221021 L 0.44805384,0.42224493 L 0.44803648,0.42226229 L 0.44801912,0.42229701 L 0.44800176,0.42231437 L 0.44800176,0.42231437 L 0.44800176,0.42233173 L 0.44800176,0.42233173 L 0.44800176,0.42233173 L 0.44801912,0.42233173 L 0.44803648,0.42231437 L 0.4480712,0.42229701 L 0.44808856,0.42227965 L 0.44812329,0.42226229 L 0.44817537,0.42222757 L 0.44821009,0.42219285 L 0.44824481,0.42217549 L 0.44826217,0.42214076 L 0.4482969,0.4221234 L 0.44833162,0.42210604 L 0.44836634,0.42207132 L 0.44840106,0.42205396 L 0.44843579,0.42201924 L 0.44847051,0.42198452 L 0.44850523,0.42196715 L 0.44855731,0.42193243 L 0.44859203,0.42189771 L 0.44864412,0.42186299 L 0.4486962,0.42182827 L 0.44873092,0.42177618 L 0.44878301,0.42174146 L 0.44885245,0.42170674 L 0.44890453,0.42167202 L 0.44895661,0.42161993 L 0.44902606,0.42156785 L 0.44907814,0.42153313 L 0.44914759,0.42148105 L 0.44921703,0.42142896 L 0.44928647,0.42137688 L 0.44935592,0.4213248 L 0.44942536,0.42127271 L 0.44951217,0.42122063 L 0.44958161,0.42116855 L 0.44966842,0.42111646 C 0.45156076,0.41686302 0.44893925,0.41993592 0.44895661,0.41839079 z "
         style="font-style:normal;font-variant:normal;font-weight:normal;font-stretch:normal;letter-spacing:normal;word-spacing:normal;text-anchor:start;fill:#d70752;fill-opacity:1;fill-rule:nonzero;stroke:#d72766;stroke-width:0;stroke-linecap:butt;stroke-linejoin:miter;stroke-miterlimit:10.43299961;stroke-dasharray:none;stroke-dashoffset:0;stroke-opacity:1"
         id="path7226" />
      <path
         d="M 0.44480734,0.43569971 L 0.44487678,0.43547401 L 0.44496358,0.43524832 L 0.44501567,0.43503999 L 0.44508511,0.43481429 L 0.44515456,0.43460596 L 0.44520664,0.43439763 L 0.44525872,0.43420666 L 0.4453108,0.43401569 L 0.44536289,0.43382472 L 0.44539761,0.43363375 L 0.44544969,0.43344278 L 0.44548441,0.43326917 L 0.4455365,0.43309556 L 0.44557122,0.43292195 L 0.44564066,0.43259209 L 0.44569275,0.43227959 L 0.44576219,0.43196709 L 0.44581427,0.43167195 L 0.44586636,0.43137682 L 0.44591844,0.43109904 L 0.44597052,0.43082126 L 0.44602261,0.43054349 L 0.44609205,0.43026571 C 0.44383512,0.43313028 0.44505039,0.43375527 0.44480734,0.43569971 z "
         style="font-style:normal;font-variant:normal;font-weight:normal;font-stretch:normal;letter-spacing:normal;word-spacing:normal;text-anchor:start;fill:#d70752;fill-opacity:1;fill-rule:nonzero;stroke:#d72766;stroke-width:0;stroke-linecap:butt;stroke-linejoin:miter;stroke-miterlimit:10.43299961;stroke-dasharray:none;stroke-dashoffset:0;stroke-opacity:1"
         id="path7228" />
    </g>
  </g>
</svg>
